{
    "asset" : {
        "generator" : "Khronos glTF Blender I/O v3.3.27",
        "version" : "2.0"
    },
    "scene" : 0,
    "scenes" : [
        {
            "name" : "Scene",
            "nodes" : [
                0,
                1,
                2,
                3,
                4,
                5
            ]
        }
    ],
    "nodes" : [
        {
            "mesh" : 0,
            "name" : "Course",
            "scale" : [
                1,
                1,
                100
            ],
            "translation" : [
                -24.5,
                0,
                -78.22000122070312
            ]
        },
        {
            "mesh" : 1,
            "name" : "\u5e73\u9762.001",
            "translation" : [
                0,
                -0.12999999523162842,
                0
            ]
        },
        {
            "mesh" : 2,
            "name" : "\u5186",
            "rotation" : [
                -0.5,
                0.5,
                -0.5,
                0.5
            ],
            "scale" : [
                0.7699999809265137,
                0.7400000095367432,
                0.9399999976158142
            ],
            "translation" : [
                14.479999542236328,
                -0.5600000023841858,
                3.6000001430511475
            ]
        },
        {
            "mesh" : 3,
            "name" : "\u5186.011",
            "scale" : [
                0.800000011920929,
                0.800000011920929,
                0.800000011920929
            ],
            "translation" : [
                10.365497589111328,
                0,
                12.581199645996094
            ]
        },
        {
            "name" : "\u5186.002",
            "rotation" : [
                0.5,
                0.5,
                -0.5,
                0.5
            ],
            "translation" : [
                0,
                4.349999904632568,
                0
            ]
        },
        {
            "mesh" : 4,
            "name" : "\u5186.001",
            "rotation" : [
                0,
                0,
                -0.7071068286895752,
                0.7071068286895752
            ],
            "translation" : [
                5.509999752044678,
                -0.559999942779541,
                -1.0399999618530273
            ]
        }
    ],
    "materials" : [
        {
            "doubleSided" : true,
            "name" : "\u30de\u30c6\u30ea\u30a2\u30eb.001",
            "pbrMetallicRoughness" : {
                "baseColorFactor" : [
                    0.4969233274459839,
                    0.3639459013938904,
                    0.17505106329917908,
                    1
                ],
                "metallicFactor" : 0
            }
        },
        {
            "doubleSided" : true,
            "name" : "\u30de\u30c6\u30ea\u30a2\u30eb",
            "pbrMetallicRoughness" : {
                "baseColorFactor" : [
                    0.16513186693191528,
                    0.24228087067604065,
                    0.3094688951969147,
                    1
                ],
                "metallicFactor" : 0,
                "roughnessFactor" : 0.5
            }
        },
        {
            "doubleSided" : true,
            "name" : "\u30de\u30c6\u30ea\u30a2\u30eb.002",
            "pbrMetallicRoughness" : {
                "baseColorFactor" : [
                    0.05559529736638069,
                    0.06504462659358978,
                    0.10653398185968399,
                    1
                ],
                "metallicFactor" : 0.0314960777759552
            }
        },
        {
            "doubleSided" : true,
            "name" : "\u30de\u30c6\u30ea\u30a2\u30eb.003",
            "pbrMetallicRoughness" : {
                "baseColorFactor" : [
                    0.16513186693191528,
                    0.24228087067604065,
                    0.3094688951969147,
                    1
                ],
                "metallicFactor" : 0,
                "roughnessFactor" : 0.5
            }
        }
    ],
    "meshes" : [
        {
            "name" : "\u5e73\u9762.002",
            "primitives" : [
                {
                    "attributes" : {
                        "POSITION" : 0,
                        "NORMAL" : 1,
                        "TEXCOORD_0" : 2
                    },
                    "indices" : 3,
                    "material" : 0
                }
            ]
        },
        {
            "name" : "\u5e73\u9762",
            "primitives" : [
                {
                    "attributes" : {
                        "POSITION" : 4,
                        "NORMAL" : 5,
                        "TEXCOORD_0" : 6
                    },
                    "indices" : 7
                }
            ]
        },
        {
            "name" : "\u5186",
            "primitives" : [
                {
                    "attributes" : {
                        "POSITION" : 8,
                        "NORMAL" : 9,
                        "TEXCOORD_0" : 10
                    },
                    "indices" : 11,
                    "material" : 1
                }
            ]
        },
        {
            "name" : "\u5186.002",
            "primitives" : [
                {
                    "attributes" : {
                        "POSITION" : 12,
                        "NORMAL" : 13,
                        "TEXCOORD_0" : 14
                    },
                    "indices" : 15,
                    "material" : 2
                }
            ]
        },
        {
            "name" : "\u5186.003",
            "primitives" : [
                {
                    "attributes" : {
                        "POSITION" : 16,
                        "NORMAL" : 17,
                        "TEXCOORD_0" : 18
                    },
                    "indices" : 11,
                    "material" : 3
                }
            ]
        }
    ],
    "accessors" : [
        {
            "bufferView" : 0,
            "componentType" : 5126,
            "count" : 22532,
            "max" : [
                50.935176849365234,
                2.6167328357696533,
                0.9893172979354858
            ],
            "min" : [
                -1.571656584739685,
                -1.6224323511123657,
                0.5702480673789978
            ],
            "type" : "VEC3"
        },
        {
            "bufferView" : 1,
            "componentType" : 5126,
            "count" : 22532,
            "type" : "VEC3"
        },
        {
            "bufferView" : 2,
            "componentType" : 5126,
            "count" : 22532,
            "type" : "VEC2"
        },
        {
            "bufferView" : 3,
            "componentType" : 5123,
            "count" : 34410,
            "type" : "SCALAR"
        },
        {
            "bufferView" : 4,
            "componentType" : 5126,
            "count" : 4,
            "max" : [
                27.5,
                0,
                27.5
            ],
            "min" : [
                -27.5,
                0,
                -27.5
            ],
            "type" : "VEC3"
        },
        {
            "bufferView" : 5,
            "componentType" : 5126,
            "count" : 4,
            "type" : "VEC3"
        },
        {
            "bufferView" : 6,
            "componentType" : 5126,
            "count" : 4,
            "type" : "VEC2"
        },
        {
            "bufferView" : 7,
            "componentType" : 5123,
            "count" : 6,
            "type" : "SCALAR"
        },
        {
            "bufferView" : 8,
            "componentType" : 5126,
            "count" : 122,
            "max" : [
                1.0000003576278687,
                0,
                2
            ],
            "min" : [
                -2,
                -8.5,
                -2
            ],
            "type" : "VEC3"
        },
        {
            "bufferView" : 9,
            "componentType" : 5126,
            "count" : 122,
            "type" : "VEC3"
        },
        {
            "bufferView" : 10,
            "componentType" : 5126,
            "count" : 122,
            "type" : "VEC2"
        },
        {
            "bufferView" : 11,
            "componentType" : 5123,
            "count" : 204,
            "type" : "SCALAR"
        },
        {
            "bufferView" : 12,
            "componentType" : 5126,
            "count" : 6688,
            "max" : [
                19.486541748046875,
                3.3289880752563477,
                9.428506851196289
            ],
            "min" : [
                -45.01229476928711,
                -0.1874602884054184,
                -41.64974594116211
            ],
            "type" : "VEC3"
        },
        {
            "bufferView" : 13,
            "componentType" : 5126,
            "count" : 6688,
            "type" : "VEC3"
        },
        {
            "bufferView" : 14,
            "componentType" : 5126,
            "count" : 6688,
            "type" : "VEC2"
        },
        {
            "bufferView" : 15,
            "componentType" : 5123,
            "count" : 10032,
            "type" : "SCALAR"
        },
        {
            "bufferView" : 16,
            "componentType" : 5126,
            "count" : 122,
            "max" : [
                1.0000003576278687,
                0,
                2
            ],
            "min" : [
                -2,
                -8.5,
                -2
            ],
            "type" : "VEC3"
        },
        {
            "bufferView" : 17,
            "componentType" : 5126,
            "count" : 122,
            "type" : "VEC3"
        },
        {
            "bufferView" : 18,
            "componentType" : 5126,
            "count" : 122,
            "type" : "VEC2"
        }
    ],
    "bufferViews" : [
        {
            "buffer" : 0,
            "byteLength" : 270384,
            "byteOffset" : 0,
            "target" : 34962
        },
        {
            "buffer" : 0,
            "byteLength" : 270384,
            "byteOffset" : 270384,
            "target" : 34962
        },
        {
            "buffer" : 0,
            "byteLength" : 180256,
            "byteOffset" : 540768,
            "target" : 34962
        },
        {
            "buffer" : 0,
            "byteLength" : 68820,
            "byteOffset" : 721024,
            "target" : 34963
        },
        {
            "buffer" : 0,
            "byteLength" : 48,
            "byteOffset" : 789844,
            "target" : 34962
        },
        {
            "buffer" : 0,
            "byteLength" : 48,
            "byteOffset" : 789892,
            "target" : 34962
        },
        {
            "buffer" : 0,
            "byteLength" : 32,
            "byteOffset" : 789940,
            "target" : 34962
        },
        {
            "buffer" : 0,
            "byteLength" : 12,
            "byteOffset" : 789972,
            "target" : 34963
        },
        {
            "buffer" : 0,
            "byteLength" : 1464,
            "byteOffset" : 789984,
            "target" : 34962
        },
        {
            "buffer" : 0,
            "byteLength" : 1464,
            "byteOffset" : 791448,
            "target" : 34962
        },
        {
            "buffer" : 0,
            "byteLength" : 976,
            "byteOffset" : 792912,
            "target" : 34962
        },
        {
            "buffer" : 0,
            "byteLength" : 408,
            "byteOffset" : 793888,
            "target" : 34963
        },
        {
            "buffer" : 0,
            "byteLength" : 80256,
            "byteOffset" : 794296,
            "target" : 34962
        },
        {
            "buffer" : 0,
            "byteLength" : 80256,
            "byteOffset" : 874552,
            "target" : 34962
        },
        {
            "buffer" : 0,
            "byteLength" : 53504,
            "byteOffset" : 954808,
            "target" : 34962
        },
        {
            "buffer" : 0,
            "byteLength" : 20064,
            "byteOffset" : 1008312,
            "target" : 34963
        },
        {
            "buffer" : 0,
            "byteLength" : 1464,
            "byteOffset" : 1028376,
            "target" : 34962
        },
        {
            "buffer" : 0,
            "byteLength" : 1464,
            "byteOffset" : 1029840,
            "target" : 34962
        },
        {
            "buffer" : 0,
            "byteLength" : 976,
            "byteOffset" : 1031304,
            "target" : 34962
        }
    ],
    "buffers" : [
        {
            "byteLength" : 1032280,
            "uri" : "data:application/octet-stream;base64,"
        }
    ]
}
